<?xml version="1.0" encoding="UTF-8"?>
<svg id="_图层_1" data-name=" 图层 1" xmlns="http://www.w3.org/2000/svg" viewBox="0 0 30 30">
  <defs>
    <style>
      .cls-1 {
        fill: #10b881;
      }
    </style>
  </defs>
  <path class="cls-1" d="M30,7.93v14.17c-.06.3-.08.6-.13.9-.61,3.47-3.39,6.25-6.86,6.86l-.93.13H7.9c-.3-.06-.6-.08-.9-.13-3.47-.61-6.25-3.39-6.86-6.86-.05-.3-.07-.61-.13-.9V7.9C.35,3.59,3.82.18,8.16,0h13.65c4.32.17,7.9,3.6,8.19,7.93ZM7.58,4.98c-.22.22-.36.52-.38.83v18.43c.08.62.57,1.09,1.19,1.16h13.25c1.59-.22,1.53-2.5-.1-2.6h-11.1c-.33-.02-.61-.27-.64-.61V5.72c-.17-1.05-1.44-1.5-2.22-.73h0Z"/>
</svg>